<svg width="14" height="28" viewBox="0 0 14 28" fill="none" xmlns="http://www.w3.org/2000/svg">
<path d="M8.00793 27.5366L13.5967 22.0151C14.1396 21.4472 14.1396 20.5322 13.5648 19.9958C12.9899 19.4595 12.0957 19.4595 11.5528 19.9958L8.45504 23.0563L8.45504 1.41993C8.45504 0.631146 7.78438 0.000121799 6.98599 0.000121764C6.18759 0.000121729 5.54887 0.631146 5.54887 1.41993L5.54887 23.0563L2.45108 19.9958C1.87624 19.4595 0.950094 19.4595 0.407183 20.0274C-0.135728 20.5953 -0.135728 21.4787 0.407183 22.0151L5.99597 27.5366C6.53888 28.1045 7.43309 28.1676 8.00793 27.6312C8.00793 27.5997 8.03987 27.5997 8.00793 27.5366Z" fill="black"/>
</svg>
