<?xml version="1.0" encoding="UTF-8"?>
<svg xmlns="http://www.w3.org/2000/svg" xmlns:xlink="http://www.w3.org/1999/xlink" width="64px" height="64px" viewBox="0 0 64 64" version="1.1">
<defs>
<clipPath id="clip1">
  <path d="M 19.203125 11.4375 L 44.796875 11.4375 L 44.796875 18 L 19.203125 18 Z M 19.203125 11.4375 "/>
</clipPath>
<clipPath id="clip2">
  <path d="M 27.648438 22.867188 L 37.375 22.867188 L 37.375 25.585938 L 27.648438 25.585938 Z M 27.648438 22.867188 "/>
</clipPath>
<clipPath id="clip3">
  <path d="M 27.648438 22.867188 L 37.375 22.867188 L 37.375 25.585938 L 27.648438 25.585938 Z M 27.648438 22.867188 "/>
</clipPath>
<clipPath id="clip4">
  <path d="M 23.890625 38.0625 L 44.796875 38.0625 L 44.796875 48.242188 L 23.890625 48.242188 Z M 23.890625 38.0625 "/>
</clipPath>
<clipPath id="clip5">
  <path d="M 19.203125 28.328125 L 40 28.328125 L 40 38.914062 L 19.203125 38.914062 Z M 19.203125 28.328125 "/>
</clipPath>
<clipPath id="clip6">
  <path d="M 32.429688 25.585938 L 33.625 25.585938 L 33.625 26.796875 L 32.429688 26.796875 Z M 32.429688 25.585938 "/>
</clipPath>
</defs>
<g id="surface1">
<g clip-path="url(#clip1)" clip-rule="nonzero">
<path style=" stroke:none;fill-rule:nonzero;fill:rgb(0%,61.176473%,61.176473%);fill-opacity:1;" d="M 44.796875 16.328125 C 44.796875 16.257812 44.773438 16.210938 44.726562 16.164062 C 41.140625 12.960938 36.515625 11.351562 31.695312 11.625 C 26.882812 11.898438 22.46875 14.023438 19.265625 17.609375 C 19.25 17.632812 19.234375 17.65625 19.226562 17.679688 C 19.21875 17.703125 19.210938 17.734375 19.21875 17.765625 C 19.21875 17.789062 19.226562 17.820312 19.234375 17.84375 C 19.25 17.867188 19.265625 17.890625 19.289062 17.90625 C 19.304688 17.929688 19.328125 17.945312 19.359375 17.953125 C 19.382812 17.960938 19.414062 17.96875 19.4375 17.960938 C 19.46875 17.960938 19.492188 17.953125 19.523438 17.945312 C 19.546875 17.929688 19.570312 17.914062 19.585938 17.890625 C 22.710938 14.390625 27.023438 12.3125 31.71875 12.046875 C 36.421875 11.78125 40.9375 13.359375 44.445312 16.484375 C 44.476562 16.507812 44.515625 16.53125 44.554688 16.53125 C 44.59375 16.539062 44.632812 16.539062 44.671875 16.515625 C 44.710938 16.5 44.742188 16.476562 44.765625 16.4375 C 44.789062 16.40625 44.796875 16.367188 44.796875 16.328125 Z M 44.796875 16.328125 "/>
</g>
<g clip-path="url(#clip2)" clip-rule="nonzero">
<path style=" stroke:none;fill-rule:nonzero;fill:rgb(0%,61.176473%,61.176473%);fill-opacity:1;" d="M 37.203125 24.835938 C 37.203125 24.773438 37.179688 24.71875 37.132812 24.679688 C 36.96875 24.53125 36.804688 24.398438 36.625 24.265625 C 36.453125 24.140625 36.273438 24.023438 36.085938 23.914062 C 35.898438 23.804688 35.703125 23.703125 35.507812 23.609375 C 35.3125 23.515625 35.109375 23.4375 34.90625 23.367188 C 34.703125 23.296875 34.492188 23.234375 34.28125 23.179688 C 34.070312 23.132812 33.859375 23.085938 33.648438 23.0625 C 33.429688 23.03125 33.21875 23.007812 33 23 C 32.78125 22.992188 32.5625 22.992188 32.351562 23.007812 C 32.132812 23.015625 31.914062 23.039062 31.703125 23.070312 C 31.484375 23.109375 31.273438 23.148438 31.0625 23.203125 C 30.859375 23.257812 30.648438 23.320312 30.445312 23.398438 C 30.242188 23.46875 30.039062 23.554688 29.84375 23.648438 C 29.648438 23.742188 29.460938 23.851562 29.273438 23.960938 C 29.09375 24.070312 28.914062 24.195312 28.742188 24.328125 C 28.5625 24.453125 28.398438 24.59375 28.242188 24.742188 C 28.078125 24.890625 27.929688 25.046875 27.78125 25.203125 C 27.765625 25.226562 27.75 25.25 27.742188 25.273438 C 27.734375 25.304688 27.726562 25.328125 27.726562 25.359375 C 27.734375 25.390625 27.734375 25.414062 27.75 25.4375 C 27.765625 25.46875 27.78125 25.484375 27.796875 25.507812 C 27.820312 25.523438 27.84375 25.539062 27.875 25.546875 C 27.898438 25.554688 27.929688 25.5625 27.953125 25.5625 C 27.984375 25.5625 28.007812 25.554688 28.03125 25.539062 C 28.0625 25.523438 28.078125 25.507812 28.101562 25.492188 C 28.234375 25.335938 28.375 25.195312 28.523438 25.054688 C 28.679688 24.921875 28.835938 24.789062 28.992188 24.664062 C 29.15625 24.546875 29.328125 24.429688 29.5 24.320312 C 29.671875 24.21875 29.851562 24.125 30.03125 24.03125 C 30.210938 23.945312 30.398438 23.867188 30.59375 23.796875 C 30.78125 23.726562 30.976562 23.664062 31.171875 23.617188 C 31.367188 23.5625 31.570312 23.523438 31.765625 23.492188 C 31.96875 23.460938 32.171875 23.4375 32.375 23.429688 C 32.578125 23.414062 32.78125 23.414062 32.984375 23.421875 C 33.1875 23.429688 33.382812 23.453125 33.585938 23.476562 C 33.789062 23.507812 33.984375 23.546875 34.1875 23.59375 C 34.382812 23.640625 34.578125 23.703125 34.765625 23.765625 C 34.960938 23.835938 35.148438 23.90625 35.328125 23.992188 C 35.515625 24.078125 35.695312 24.179688 35.867188 24.28125 C 36.046875 24.382812 36.210938 24.492188 36.375 24.617188 C 36.539062 24.734375 36.703125 24.859375 36.851562 25 C 36.882812 25.023438 36.921875 25.039062 36.960938 25.046875 C 37 25.054688 37.039062 25.046875 37.078125 25.03125 C 37.117188 25.015625 37.148438 24.992188 37.171875 24.953125 C 37.195312 24.921875 37.203125 24.882812 37.203125 24.835938 Z M 37.203125 24.835938 "/>
<path style=" stroke:none;fill-rule:nonzero;fill:rgb(0%,61.176473%,61.176473%);fill-opacity:1;" d="M 37.203125 24.835938 C 37.203125 24.773438 37.179688 24.71875 37.132812 24.679688 C 36.96875 24.53125 36.804688 24.398438 36.625 24.265625 C 36.453125 24.140625 36.273438 24.023438 36.085938 23.914062 C 35.898438 23.804688 35.703125 23.703125 35.507812 23.609375 C 35.3125 23.515625 35.109375 23.4375 34.90625 23.367188 C 34.703125 23.296875 34.492188 23.234375 34.28125 23.179688 C 34.070312 23.132812 33.859375 23.085938 33.648438 23.0625 C 33.429688 23.03125 33.21875 23.007812 33 23 C 32.78125 22.992188 32.5625 22.992188 32.351562 23.007812 C 32.132812 23.015625 31.914062 23.039062 31.703125 23.070312 C 31.484375 23.109375 31.273438 23.148438 31.0625 23.203125 C 30.859375 23.257812 30.648438 23.320312 30.445312 23.398438 C 30.242188 23.46875 30.039062 23.554688 29.84375 23.648438 C 29.648438 23.742188 29.460938 23.851562 29.273438 23.960938 C 29.09375 24.070312 28.914062 24.195312 28.742188 24.328125 C 28.5625 24.453125 28.398438 24.59375 28.242188 24.742188 C 28.078125 24.890625 27.929688 25.046875 27.78125 25.203125 C 27.765625 25.226562 27.75 25.25 27.742188 25.273438 C 27.734375 25.304688 27.726562 25.328125 27.726562 25.359375 C 27.734375 25.390625 27.734375 25.414062 27.75 25.4375 C 27.765625 25.46875 27.78125 25.484375 27.796875 25.507812 C 27.820312 25.523438 27.84375 25.539062 27.875 25.546875 C 27.898438 25.554688 27.929688 25.5625 27.953125 25.5625 C 27.984375 25.5625 28.007812 25.554688 28.03125 25.539062 C 28.0625 25.523438 28.078125 25.507812 28.101562 25.492188 C 28.234375 25.335938 28.375 25.195312 28.523438 25.054688 C 28.679688 24.921875 28.835938 24.789062 28.992188 24.664062 C 29.15625 24.546875 29.328125 24.429688 29.5 24.320312 C 29.671875 24.21875 29.851562 24.125 30.03125 24.03125 C 30.210938 23.945312 30.398438 23.867188 30.59375 23.796875 C 30.78125 23.726562 30.976562 23.664062 31.171875 23.617188 C 31.367188 23.5625 31.570312 23.523438 31.765625 23.492188 C 31.96875 23.460938 32.171875 23.4375 32.375 23.429688 C 32.578125 23.414062 32.78125 23.414062 32.984375 23.421875 C 33.1875 23.429688 33.382812 23.453125 33.585938 23.476562 C 33.789062 23.507812 33.984375 23.546875 34.1875 23.59375 C 34.382812 23.640625 34.578125 23.703125 34.765625 23.765625 C 34.960938 23.835938 35.148438 23.90625 35.328125 23.992188 C 35.515625 24.078125 35.695312 24.179688 35.867188 24.28125 C 36.046875 24.382812 36.210938 24.492188 36.375 24.617188 C 36.539062 24.734375 36.703125 24.859375 36.851562 25 C 36.882812 25.023438 36.921875 25.039062 36.960938 25.046875 C 37 25.054688 37.039062 25.046875 37.078125 25.03125 C 37.117188 25.015625 37.148438 24.992188 37.171875 24.953125 C 37.195312 24.921875 37.203125 24.882812 37.203125 24.835938 Z M 37.203125 24.835938 "/>
</g>
<path style=" stroke:none;fill-rule:nonzero;fill:rgb(0%,61.176473%,61.176473%);fill-opacity:1;" d="M 42.265625 19.164062 C 42.265625 19.101562 42.242188 19.046875 42.195312 19 C 36.34375 13.78125 27.328125 14.289062 22.109375 20.140625 C 22.085938 20.164062 22.078125 20.1875 22.0625 20.210938 C 22.054688 20.242188 22.054688 20.265625 22.054688 20.296875 C 22.054688 20.320312 22.0625 20.351562 22.070312 20.375 C 22.085938 20.398438 22.101562 20.421875 22.125 20.445312 C 22.148438 20.460938 22.171875 20.476562 22.195312 20.484375 C 22.226562 20.492188 22.25 20.5 22.28125 20.492188 C 22.304688 20.492188 22.335938 20.484375 22.359375 20.476562 C 22.382812 20.460938 22.40625 20.445312 22.421875 20.421875 C 27.492188 14.75 36.234375 14.25 41.914062 19.320312 C 41.945312 19.351562 41.984375 19.367188 42.023438 19.375 C 42.0625 19.375 42.101562 19.375 42.140625 19.359375 C 42.179688 19.335938 42.210938 19.3125 42.234375 19.273438 C 42.257812 19.242188 42.265625 19.203125 42.265625 19.164062 Z M 42.265625 19.164062 "/>
<g clip-path="url(#clip3)" clip-rule="nonzero">
<path style=" stroke:none;fill-rule:nonzero;fill:rgb(0%,61.176473%,61.176473%);fill-opacity:1;" d="M 37.203125 24.835938 C 37.203125 24.773438 37.179688 24.71875 37.132812 24.679688 C 36.96875 24.53125 36.804688 24.398438 36.625 24.265625 C 36.453125 24.140625 36.273438 24.023438 36.085938 23.914062 C 35.898438 23.804688 35.703125 23.703125 35.507812 23.609375 C 35.3125 23.515625 35.109375 23.4375 34.90625 23.367188 C 34.703125 23.296875 34.492188 23.234375 34.28125 23.179688 C 34.070312 23.132812 33.859375 23.085938 33.648438 23.0625 C 33.429688 23.03125 33.21875 23.007812 33 23 C 32.78125 22.992188 32.5625 22.992188 32.351562 23.007812 C 32.132812 23.015625 31.914062 23.039062 31.703125 23.070312 C 31.484375 23.109375 31.273438 23.148438 31.0625 23.203125 C 30.859375 23.257812 30.648438 23.320312 30.445312 23.398438 C 30.242188 23.46875 30.039062 23.554688 29.84375 23.648438 C 29.648438 23.742188 29.460938 23.851562 29.273438 23.960938 C 29.09375 24.070312 28.914062 24.195312 28.742188 24.328125 C 28.5625 24.453125 28.398438 24.59375 28.242188 24.742188 C 28.078125 24.890625 27.929688 25.046875 27.78125 25.203125 C 27.765625 25.226562 27.75 25.25 27.742188 25.273438 C 27.734375 25.304688 27.726562 25.328125 27.726562 25.359375 C 27.734375 25.390625 27.734375 25.414062 27.75 25.4375 C 27.765625 25.46875 27.78125 25.484375 27.796875 25.507812 C 27.820312 25.523438 27.84375 25.539062 27.875 25.546875 C 27.898438 25.554688 27.929688 25.5625 27.953125 25.5625 C 27.984375 25.5625 28.007812 25.554688 28.03125 25.539062 C 28.0625 25.523438 28.078125 25.507812 28.101562 25.492188 C 28.234375 25.335938 28.375 25.195312 28.523438 25.054688 C 28.679688 24.921875 28.835938 24.789062 28.992188 24.664062 C 29.15625 24.546875 29.328125 24.429688 29.5 24.320312 C 29.671875 24.21875 29.851562 24.125 30.03125 24.03125 C 30.210938 23.945312 30.398438 23.867188 30.59375 23.796875 C 30.78125 23.726562 30.976562 23.664062 31.171875 23.617188 C 31.367188 23.5625 31.570312 23.523438 31.765625 23.492188 C 31.96875 23.460938 32.171875 23.4375 32.375 23.429688 C 32.578125 23.414062 32.78125 23.414062 32.984375 23.421875 C 33.1875 23.429688 33.382812 23.453125 33.585938 23.476562 C 33.789062 23.507812 33.984375 23.546875 34.1875 23.59375 C 34.382812 23.640625 34.578125 23.703125 34.765625 23.765625 C 34.960938 23.835938 35.148438 23.90625 35.328125 23.992188 C 35.515625 24.078125 35.695312 24.179688 35.867188 24.28125 C 36.046875 24.382812 36.210938 24.492188 36.375 24.617188 C 36.539062 24.734375 36.703125 24.859375 36.851562 25 C 36.882812 25.023438 36.921875 25.039062 36.960938 25.046875 C 37 25.054688 37.039062 25.046875 37.078125 25.03125 C 37.117188 25.015625 37.148438 24.992188 37.171875 24.953125 C 37.195312 24.921875 37.203125 24.882812 37.203125 24.835938 Z M 37.203125 24.835938 "/>
</g>
<path style=" stroke:none;fill-rule:nonzero;fill:rgb(0%,61.176473%,61.176473%);fill-opacity:1;" d="M 39.734375 22 C 39.734375 21.9375 39.710938 21.882812 39.664062 21.84375 C 35.375 18.015625 28.773438 18.382812 24.945312 22.671875 C 24.929688 22.6875 24.914062 22.71875 24.90625 22.742188 C 24.898438 22.765625 24.890625 22.796875 24.890625 22.820312 C 24.890625 22.851562 24.898438 22.882812 24.914062 22.90625 C 24.921875 22.929688 24.945312 22.953125 24.960938 22.96875 C 24.984375 22.992188 25.007812 23.007812 25.03125 23.015625 C 25.0625 23.023438 25.085938 23.023438 25.117188 23.023438 C 25.148438 23.023438 25.171875 23.015625 25.195312 23.007812 C 25.226562 22.992188 25.242188 22.976562 25.265625 22.953125 C 28.929688 18.84375 35.265625 18.484375 39.382812 22.15625 C 39.414062 22.1875 39.453125 22.203125 39.492188 22.210938 C 39.53125 22.210938 39.570312 22.210938 39.609375 22.1875 C 39.648438 22.171875 39.679688 22.148438 39.703125 22.109375 C 39.726562 22.078125 39.734375 22.039062 39.734375 22 Z M 39.734375 22 "/>
<g clip-path="url(#clip4)" clip-rule="nonzero">
<path style=" stroke:none;fill-rule:evenodd;fill:rgb(9.411765%,20.784314%,40.784314%);fill-opacity:1;" d="M 40.203125 39.117188 L 38.859375 39.117188 C 38.898438 39.40625 38.914062 39.703125 38.914062 40 C 38.914062 43.789062 35.851562 46.859375 32.078125 46.859375 C 28.195312 46.859375 25.453125 43.789062 25.242188 40.328125 L 25.242188 40.320312 C 25.242188 40.28125 25.242188 40.242188 25.242188 40.203125 L 27.953125 40.203125 C 28.171875 40.804688 28.65625 41.242188 29.429688 41.242188 C 30.203125 41.242188 31 40.53125 31 39.664062 C 31 38.789062 30.203125 38.085938 29.429688 38.085938 C 28.65625 38.085938 28.171875 38.515625 27.953125 39.117188 L 23.953125 39.117188 C 23.914062 39.421875 23.898438 39.71875 23.898438 40.03125 C 23.898438 44.5625 27.5625 48.226562 32.078125 48.226562 C 36.53125 48.226562 40.15625 44.65625 40.25 40.203125 L 41.75 40.203125 C 41.96875 40.8125 42.546875 41.242188 43.226562 41.242188 C 44.09375 41.242188 44.796875 40.53125 44.796875 39.664062 C 44.796875 38.789062 44.09375 38.085938 43.226562 38.085938 C 42.546875 38.085938 41.96875 38.515625 41.75 39.117188 Z M 43.226562 39.03125 C 42.882812 39.03125 42.601562 39.3125 42.601562 39.664062 C 42.601562 40.007812 42.882812 40.289062 43.226562 40.289062 C 43.570312 40.289062 43.851562 40.007812 43.851562 39.664062 C 43.851562 39.3125 43.570312 39.03125 43.226562 39.03125 Z M 29.429688 39.03125 C 29.085938 39.03125 28.804688 39.3125 28.804688 39.664062 C 28.804688 40.007812 29.085938 40.289062 29.429688 40.289062 C 29.773438 40.289062 30.054688 40.007812 30.054688 39.664062 C 30.054688 39.3125 29.773438 39.03125 29.429688 39.03125 Z M 29.429688 39.03125 "/>
</g>
<g clip-path="url(#clip5)" clip-rule="nonzero">
<path style=" stroke:none;fill-rule:evenodd;fill:rgb(0%,61.176473%,61.176473%);fill-opacity:1;" d="M 30.054688 32.007812 C 27.59375 32.632812 25.570312 34.375 24.5625 36.664062 L 22.25 36.664062 C 22.03125 36.0625 21.453125 35.632812 20.773438 35.632812 C 19.90625 35.632812 19.203125 36.335938 19.203125 37.203125 C 19.203125 38.078125 19.90625 38.78125 20.773438 38.78125 C 21.453125 38.78125 22.03125 38.351562 22.25 37.75 L 25.617188 37.75 C 26.539062 35.0625 29.085938 33.140625 32.078125 33.140625 C 34.648438 33.140625 36.890625 34.5625 38.054688 36.664062 L 35.898438 36.664062 C 35.679688 36.0625 35.101562 35.632812 34.421875 35.632812 C 33.554688 35.632812 32.851562 36.335938 32.851562 37.203125 C 32.851562 38.078125 33.554688 38.78125 34.421875 38.78125 C 35.101562 38.78125 35.679688 38.351562 35.898438 37.75 L 39.984375 37.75 C 39.195312 34.929688 36.945312 32.726562 34.101562 32.007812 L 34.101562 29.984375 L 34.773438 29.984375 C 35.210938 29.984375 35.5625 29.625 35.5625 29.1875 C 35.5625 28.75 35.210938 28.390625 34.773438 28.390625 L 33.703125 28.390625 C 33.78125 28.570312 33.828125 28.765625 33.828125 28.96875 C 33.828125 29.75 33.195312 30.382812 32.414062 30.382812 C 31.632812 30.382812 31 29.75 31 28.96875 C 31 28.765625 31.039062 28.570312 31.117188 28.390625 L 29.382812 28.390625 C 28.945312 28.390625 28.59375 28.75 28.59375 29.1875 C 28.59375 29.625 28.945312 29.984375 29.382812 29.984375 L 30.054688 29.984375 Z M 34.421875 36.578125 C 34.765625 36.578125 35.046875 36.859375 35.046875 37.203125 C 35.046875 37.554688 34.765625 37.835938 34.421875 37.835938 C 34.078125 37.835938 33.796875 37.554688 33.796875 37.203125 C 33.796875 36.859375 34.078125 36.578125 34.421875 36.578125 Z M 20.773438 36.578125 C 21.117188 36.578125 21.398438 36.859375 21.398438 37.203125 C 21.398438 37.554688 21.117188 37.835938 20.773438 37.835938 C 20.421875 37.835938 20.148438 37.554688 20.148438 37.203125 C 20.148438 36.859375 20.421875 36.578125 20.773438 36.578125 Z M 20.773438 36.578125 "/>
</g>
<path style=" stroke:none;fill-rule:evenodd;fill:rgb(0%,61.176473%,61.176473%);fill-opacity:1;" d="M 32.414062 28.078125 C 31.921875 28.078125 31.53125 28.476562 31.53125 28.96875 C 31.53125 29.453125 31.921875 29.851562 32.414062 29.851562 C 32.898438 29.851562 33.296875 29.453125 33.296875 28.96875 C 33.296875 28.476562 32.898438 28.078125 32.414062 28.078125 Z M 32.414062 28.078125 "/>
<path style=" stroke:none;fill-rule:evenodd;fill:rgb(0%,61.176473%,61.176473%);fill-opacity:1;" d="M 31.289062 26.3125 C 30.90625 26.3125 30.601562 26.617188 30.601562 27 C 30.601562 27.382812 30.90625 27.695312 31.289062 27.695312 C 31.671875 27.695312 31.984375 27.382812 31.984375 27 C 31.984375 26.617188 31.671875 26.3125 31.289062 26.3125 Z M 31.289062 26.3125 "/>
<g clip-path="url(#clip6)" clip-rule="nonzero">
<path style=" stroke:none;fill-rule:evenodd;fill:rgb(0%,61.176473%,61.176473%);fill-opacity:1;" d="M 33.0625 25.59375 C 32.765625 25.59375 32.53125 25.835938 32.53125 26.125 C 32.53125 26.421875 32.765625 26.65625 33.0625 26.65625 C 33.351562 26.65625 33.585938 26.421875 33.585938 26.125 C 33.585938 25.835938 33.351562 25.59375 33.0625 25.59375 Z M 33.0625 25.59375 "/>
</g>
</g>
</svg>
