<?xml version="1.0" encoding="UTF-8"?>
<svg xmlns="http://www.w3.org/2000/svg" xmlns:xlink="http://www.w3.org/1999/xlink" width="32px" height="32px" viewBox="0 0 32 32" version="1.1">
<defs>
<clipPath id="clip1">
  <path d="M 9.601562 5.71875 L 22.398438 5.71875 L 22.398438 9 L 9.601562 9 Z M 9.601562 5.71875 "/>
</clipPath>
<clipPath id="clip2">
  <path d="M 13.824219 11.433594 L 18.6875 11.433594 L 18.6875 12.792969 L 13.824219 12.792969 Z M 13.824219 11.433594 "/>
</clipPath>
<clipPath id="clip3">
  <path d="M 13.824219 11.433594 L 18.6875 11.433594 L 18.6875 12.792969 L 13.824219 12.792969 Z M 13.824219 11.433594 "/>
</clipPath>
<clipPath id="clip4">
  <path d="M 11.945312 19.03125 L 22.398438 19.03125 L 22.398438 24.121094 L 11.945312 24.121094 Z M 11.945312 19.03125 "/>
</clipPath>
<clipPath id="clip5">
  <path d="M 9.601562 14.164062 L 20 14.164062 L 20 19.457031 L 9.601562 19.457031 Z M 9.601562 14.164062 "/>
</clipPath>
<clipPath id="clip6">
  <path d="M 16.214844 12.792969 L 16.8125 12.792969 L 16.8125 13.398438 L 16.214844 13.398438 Z M 16.214844 12.792969 "/>
</clipPath>
</defs>
<g id="surface1">
<g clip-path="url(#clip1)" clip-rule="nonzero">
<path style=" stroke:none;fill-rule:nonzero;fill:rgb(0%,61.176473%,61.176473%);fill-opacity:1;" d="M 22.398438 8.164062 C 22.398438 8.128906 22.386719 8.105469 22.363281 8.082031 C 20.570312 6.480469 18.257812 5.675781 15.847656 5.8125 C 13.441406 5.949219 11.234375 7.011719 9.632812 8.804688 C 9.625 8.816406 9.617188 8.828125 9.613281 8.839844 C 9.609375 8.851562 9.605469 8.867188 9.609375 8.882812 C 9.609375 8.894531 9.613281 8.910156 9.617188 8.921875 C 9.625 8.933594 9.632812 8.945312 9.644531 8.953125 C 9.652344 8.964844 9.664062 8.972656 9.679688 8.976562 C 9.691406 8.980469 9.707031 8.984375 9.71875 8.980469 C 9.734375 8.980469 9.746094 8.976562 9.761719 8.972656 C 9.773438 8.964844 9.785156 8.957031 9.792969 8.945312 C 11.355469 7.195312 13.511719 6.15625 15.859375 6.023438 C 18.210938 5.890625 20.46875 6.679688 22.222656 8.242188 C 22.238281 8.253906 22.257812 8.265625 22.277344 8.265625 C 22.296875 8.269531 22.316406 8.269531 22.335938 8.257812 C 22.355469 8.25 22.371094 8.238281 22.382812 8.21875 C 22.394531 8.203125 22.398438 8.183594 22.398438 8.164062 Z M 22.398438 8.164062 "/>
</g>
<g clip-path="url(#clip2)" clip-rule="nonzero">
<path style=" stroke:none;fill-rule:nonzero;fill:rgb(0%,61.176473%,61.176473%);fill-opacity:1;" d="M 18.601562 12.417969 C 18.601562 12.386719 18.589844 12.359375 18.566406 12.339844 C 18.484375 12.265625 18.402344 12.199219 18.3125 12.132812 C 18.226562 12.070312 18.136719 12.011719 18.042969 11.957031 C 17.949219 11.902344 17.851562 11.851562 17.753906 11.804688 C 17.65625 11.757812 17.554688 11.71875 17.453125 11.683594 C 17.351562 11.648438 17.246094 11.617188 17.140625 11.589844 C 17.035156 11.566406 16.929688 11.542969 16.824219 11.53125 C 16.714844 11.515625 16.609375 11.503906 16.5 11.5 C 16.390625 11.496094 16.28125 11.496094 16.175781 11.503906 C 16.066406 11.507812 15.957031 11.519531 15.851562 11.535156 C 15.742188 11.554688 15.636719 11.574219 15.53125 11.601562 C 15.429688 11.628906 15.324219 11.660156 15.222656 11.699219 C 15.121094 11.734375 15.019531 11.777344 14.921875 11.824219 C 14.824219 11.871094 14.730469 11.925781 14.636719 11.980469 C 14.546875 12.035156 14.457031 12.097656 14.371094 12.164062 C 14.28125 12.226562 14.199219 12.296875 14.121094 12.371094 C 14.039062 12.445312 13.964844 12.523438 13.890625 12.601562 C 13.882812 12.613281 13.875 12.625 13.871094 12.636719 C 13.867188 12.652344 13.863281 12.664062 13.863281 12.679688 C 13.867188 12.695312 13.867188 12.707031 13.875 12.71875 C 13.882812 12.734375 13.890625 12.742188 13.898438 12.753906 C 13.910156 12.761719 13.921875 12.769531 13.9375 12.773438 C 13.949219 12.777344 13.964844 12.78125 13.976562 12.78125 C 13.992188 12.78125 14.003906 12.777344 14.015625 12.769531 C 14.03125 12.761719 14.039062 12.753906 14.050781 12.746094 C 14.117188 12.667969 14.1875 12.597656 14.261719 12.527344 C 14.339844 12.460938 14.417969 12.394531 14.496094 12.332031 C 14.578125 12.273438 14.664062 12.214844 14.75 12.160156 C 14.835938 12.109375 14.925781 12.0625 15.015625 12.015625 C 15.105469 11.972656 15.199219 11.933594 15.296875 11.898438 C 15.390625 11.863281 15.488281 11.832031 15.585938 11.808594 C 15.683594 11.78125 15.785156 11.761719 15.882812 11.746094 C 15.984375 11.730469 16.085938 11.71875 16.1875 11.714844 C 16.289062 11.707031 16.390625 11.707031 16.492188 11.710938 C 16.59375 11.714844 16.691406 11.726562 16.792969 11.738281 C 16.894531 11.753906 16.992188 11.773438 17.09375 11.796875 C 17.191406 11.820312 17.289062 11.851562 17.382812 11.882812 C 17.480469 11.917969 17.574219 11.953125 17.664062 11.996094 C 17.757812 12.039062 17.847656 12.089844 17.933594 12.140625 C 18.023438 12.191406 18.105469 12.246094 18.1875 12.308594 C 18.269531 12.367188 18.351562 12.429688 18.425781 12.5 C 18.441406 12.511719 18.460938 12.519531 18.480469 12.523438 C 18.5 12.527344 18.519531 12.523438 18.539062 12.515625 C 18.558594 12.507812 18.574219 12.496094 18.585938 12.476562 C 18.597656 12.460938 18.601562 12.441406 18.601562 12.417969 Z M 18.601562 12.417969 "/>
<path style=" stroke:none;fill-rule:nonzero;fill:rgb(0%,61.176473%,61.176473%);fill-opacity:1;" d="M 18.601562 12.417969 C 18.601562 12.386719 18.589844 12.359375 18.566406 12.339844 C 18.484375 12.265625 18.402344 12.199219 18.3125 12.132812 C 18.226562 12.070312 18.136719 12.011719 18.042969 11.957031 C 17.949219 11.902344 17.851562 11.851562 17.753906 11.804688 C 17.65625 11.757812 17.554688 11.71875 17.453125 11.683594 C 17.351562 11.648438 17.246094 11.617188 17.140625 11.589844 C 17.035156 11.566406 16.929688 11.542969 16.824219 11.53125 C 16.714844 11.515625 16.609375 11.503906 16.5 11.5 C 16.390625 11.496094 16.28125 11.496094 16.175781 11.503906 C 16.066406 11.507812 15.957031 11.519531 15.851562 11.535156 C 15.742188 11.554688 15.636719 11.574219 15.53125 11.601562 C 15.429688 11.628906 15.324219 11.660156 15.222656 11.699219 C 15.121094 11.734375 15.019531 11.777344 14.921875 11.824219 C 14.824219 11.871094 14.730469 11.925781 14.636719 11.980469 C 14.546875 12.035156 14.457031 12.097656 14.371094 12.164062 C 14.28125 12.226562 14.199219 12.296875 14.121094 12.371094 C 14.039062 12.445312 13.964844 12.523438 13.890625 12.601562 C 13.882812 12.613281 13.875 12.625 13.871094 12.636719 C 13.867188 12.652344 13.863281 12.664062 13.863281 12.679688 C 13.867188 12.695312 13.867188 12.707031 13.875 12.71875 C 13.882812 12.734375 13.890625 12.742188 13.898438 12.753906 C 13.910156 12.761719 13.921875 12.769531 13.9375 12.773438 C 13.949219 12.777344 13.964844 12.78125 13.976562 12.78125 C 13.992188 12.78125 14.003906 12.777344 14.015625 12.769531 C 14.03125 12.761719 14.039062 12.753906 14.050781 12.746094 C 14.117188 12.667969 14.1875 12.597656 14.261719 12.527344 C 14.339844 12.460938 14.417969 12.394531 14.496094 12.332031 C 14.578125 12.273438 14.664062 12.214844 14.75 12.160156 C 14.835938 12.109375 14.925781 12.0625 15.015625 12.015625 C 15.105469 11.972656 15.199219 11.933594 15.296875 11.898438 C 15.390625 11.863281 15.488281 11.832031 15.585938 11.808594 C 15.683594 11.78125 15.785156 11.761719 15.882812 11.746094 C 15.984375 11.730469 16.085938 11.71875 16.1875 11.714844 C 16.289062 11.707031 16.390625 11.707031 16.492188 11.710938 C 16.59375 11.714844 16.691406 11.726562 16.792969 11.738281 C 16.894531 11.753906 16.992188 11.773438 17.09375 11.796875 C 17.191406 11.820312 17.289062 11.851562 17.382812 11.882812 C 17.480469 11.917969 17.574219 11.953125 17.664062 11.996094 C 17.757812 12.039062 17.847656 12.089844 17.933594 12.140625 C 18.023438 12.191406 18.105469 12.246094 18.1875 12.308594 C 18.269531 12.367188 18.351562 12.429688 18.425781 12.5 C 18.441406 12.511719 18.460938 12.519531 18.480469 12.523438 C 18.5 12.527344 18.519531 12.523438 18.539062 12.515625 C 18.558594 12.507812 18.574219 12.496094 18.585938 12.476562 C 18.597656 12.460938 18.601562 12.441406 18.601562 12.417969 Z M 18.601562 12.417969 "/>
</g>
<path style=" stroke:none;fill-rule:nonzero;fill:rgb(0%,61.176473%,61.176473%);fill-opacity:1;" d="M 21.132812 9.582031 C 21.132812 9.550781 21.121094 9.523438 21.097656 9.5 C 18.171875 6.890625 13.664062 7.144531 11.054688 10.070312 C 11.042969 10.082031 11.039062 10.09375 11.03125 10.105469 C 11.027344 10.121094 11.027344 10.132812 11.027344 10.148438 C 11.027344 10.160156 11.03125 10.175781 11.035156 10.1875 C 11.042969 10.199219 11.050781 10.210938 11.0625 10.222656 C 11.074219 10.230469 11.085938 10.238281 11.097656 10.242188 C 11.113281 10.246094 11.125 10.25 11.140625 10.246094 C 11.152344 10.246094 11.167969 10.242188 11.179688 10.238281 C 11.191406 10.230469 11.203125 10.222656 11.210938 10.210938 C 13.746094 7.375 18.117188 7.125 20.957031 9.660156 C 20.972656 9.675781 20.992188 9.683594 21.011719 9.6875 C 21.03125 9.6875 21.050781 9.6875 21.070312 9.679688 C 21.089844 9.667969 21.105469 9.65625 21.117188 9.636719 C 21.128906 9.621094 21.132812 9.601562 21.132812 9.582031 Z M 21.132812 9.582031 "/>
<g clip-path="url(#clip3)" clip-rule="nonzero">
<path style=" stroke:none;fill-rule:nonzero;fill:rgb(0%,61.176473%,61.176473%);fill-opacity:1;" d="M 18.601562 12.417969 C 18.601562 12.386719 18.589844 12.359375 18.566406 12.339844 C 18.484375 12.265625 18.402344 12.199219 18.3125 12.132812 C 18.226562 12.070312 18.136719 12.011719 18.042969 11.957031 C 17.949219 11.902344 17.851562 11.851562 17.753906 11.804688 C 17.65625 11.757812 17.554688 11.71875 17.453125 11.683594 C 17.351562 11.648438 17.246094 11.617188 17.140625 11.589844 C 17.035156 11.566406 16.929688 11.542969 16.824219 11.53125 C 16.714844 11.515625 16.609375 11.503906 16.5 11.5 C 16.390625 11.496094 16.28125 11.496094 16.175781 11.503906 C 16.066406 11.507812 15.957031 11.519531 15.851562 11.535156 C 15.742188 11.554688 15.636719 11.574219 15.53125 11.601562 C 15.429688 11.628906 15.324219 11.660156 15.222656 11.699219 C 15.121094 11.734375 15.019531 11.777344 14.921875 11.824219 C 14.824219 11.871094 14.730469 11.925781 14.636719 11.980469 C 14.546875 12.035156 14.457031 12.097656 14.371094 12.164062 C 14.28125 12.226562 14.199219 12.296875 14.121094 12.371094 C 14.039062 12.445312 13.964844 12.523438 13.890625 12.601562 C 13.882812 12.613281 13.875 12.625 13.871094 12.636719 C 13.867188 12.652344 13.863281 12.664062 13.863281 12.679688 C 13.867188 12.695312 13.867188 12.707031 13.875 12.71875 C 13.882812 12.734375 13.890625 12.742188 13.898438 12.753906 C 13.910156 12.761719 13.921875 12.769531 13.9375 12.773438 C 13.949219 12.777344 13.964844 12.78125 13.976562 12.78125 C 13.992188 12.78125 14.003906 12.777344 14.015625 12.769531 C 14.03125 12.761719 14.039062 12.753906 14.050781 12.746094 C 14.117188 12.667969 14.1875 12.597656 14.261719 12.527344 C 14.339844 12.460938 14.417969 12.394531 14.496094 12.332031 C 14.578125 12.273438 14.664062 12.214844 14.75 12.160156 C 14.835938 12.109375 14.925781 12.0625 15.015625 12.015625 C 15.105469 11.972656 15.199219 11.933594 15.296875 11.898438 C 15.390625 11.863281 15.488281 11.832031 15.585938 11.808594 C 15.683594 11.78125 15.785156 11.761719 15.882812 11.746094 C 15.984375 11.730469 16.085938 11.71875 16.1875 11.714844 C 16.289062 11.707031 16.390625 11.707031 16.492188 11.710938 C 16.59375 11.714844 16.691406 11.726562 16.792969 11.738281 C 16.894531 11.753906 16.992188 11.773438 17.09375 11.796875 C 17.191406 11.820312 17.289062 11.851562 17.382812 11.882812 C 17.480469 11.917969 17.574219 11.953125 17.664062 11.996094 C 17.757812 12.039062 17.847656 12.089844 17.933594 12.140625 C 18.023438 12.191406 18.105469 12.246094 18.1875 12.308594 C 18.269531 12.367188 18.351562 12.429688 18.425781 12.5 C 18.441406 12.511719 18.460938 12.519531 18.480469 12.523438 C 18.5 12.527344 18.519531 12.523438 18.539062 12.515625 C 18.558594 12.507812 18.574219 12.496094 18.585938 12.476562 C 18.597656 12.460938 18.601562 12.441406 18.601562 12.417969 Z M 18.601562 12.417969 "/>
</g>
<path style=" stroke:none;fill-rule:nonzero;fill:rgb(0%,61.176473%,61.176473%);fill-opacity:1;" d="M 19.867188 11 C 19.867188 10.96875 19.855469 10.941406 19.832031 10.921875 C 17.6875 9.007812 14.386719 9.191406 12.472656 11.335938 C 12.464844 11.34375 12.457031 11.359375 12.453125 11.371094 C 12.449219 11.382812 12.445312 11.398438 12.445312 11.410156 C 12.445312 11.425781 12.449219 11.441406 12.457031 11.453125 C 12.460938 11.464844 12.472656 11.476562 12.480469 11.484375 C 12.492188 11.496094 12.503906 11.503906 12.515625 11.507812 C 12.53125 11.511719 12.542969 11.511719 12.558594 11.511719 C 12.574219 11.511719 12.585938 11.507812 12.597656 11.503906 C 12.613281 11.496094 12.621094 11.488281 12.632812 11.476562 C 14.464844 9.421875 17.632812 9.242188 19.691406 11.078125 C 19.707031 11.09375 19.726562 11.101562 19.746094 11.105469 C 19.765625 11.105469 19.785156 11.105469 19.804688 11.09375 C 19.824219 11.085938 19.839844 11.074219 19.851562 11.054688 C 19.863281 11.039062 19.867188 11.019531 19.867188 11 Z M 19.867188 11 "/>
<g clip-path="url(#clip4)" clip-rule="nonzero">
<path style=" stroke:none;fill-rule:evenodd;fill:rgb(9.411765%,20.784314%,40.784314%);fill-opacity:1;" d="M 20.101562 19.558594 L 19.429688 19.558594 C 19.449219 19.703125 19.457031 19.851562 19.457031 20 C 19.457031 21.894531 17.925781 23.429688 16.039062 23.429688 C 14.097656 23.429688 12.726562 21.894531 12.621094 20.164062 L 12.621094 20.160156 C 12.621094 20.140625 12.621094 20.121094 12.621094 20.101562 L 13.976562 20.101562 C 14.085938 20.402344 14.328125 20.621094 14.714844 20.621094 C 15.101562 20.621094 15.5 20.265625 15.5 19.832031 C 15.5 19.394531 15.101562 19.042969 14.714844 19.042969 C 14.328125 19.042969 14.085938 19.257812 13.976562 19.558594 L 11.976562 19.558594 C 11.957031 19.710938 11.949219 19.859375 11.949219 20.015625 C 11.949219 22.28125 13.78125 24.113281 16.039062 24.113281 C 18.265625 24.113281 20.078125 22.328125 20.125 20.101562 L 20.875 20.101562 C 20.984375 20.40625 21.273438 20.621094 21.613281 20.621094 C 22.046875 20.621094 22.398438 20.265625 22.398438 19.832031 C 22.398438 19.394531 22.046875 19.042969 21.613281 19.042969 C 21.273438 19.042969 20.984375 19.257812 20.875 19.558594 Z M 21.613281 19.515625 C 21.441406 19.515625 21.300781 19.65625 21.300781 19.832031 C 21.300781 20.003906 21.441406 20.144531 21.613281 20.144531 C 21.785156 20.144531 21.925781 20.003906 21.925781 19.832031 C 21.925781 19.65625 21.785156 19.515625 21.613281 19.515625 Z M 14.714844 19.515625 C 14.542969 19.515625 14.402344 19.65625 14.402344 19.832031 C 14.402344 20.003906 14.542969 20.144531 14.714844 20.144531 C 14.886719 20.144531 15.027344 20.003906 15.027344 19.832031 C 15.027344 19.65625 14.886719 19.515625 14.714844 19.515625 Z M 14.714844 19.515625 "/>
</g>
<g clip-path="url(#clip5)" clip-rule="nonzero">
<path style=" stroke:none;fill-rule:evenodd;fill:rgb(0%,61.176473%,61.176473%);fill-opacity:1;" d="M 15.027344 16.003906 C 13.796875 16.316406 12.785156 17.1875 12.28125 18.332031 L 11.125 18.332031 C 11.015625 18.03125 10.726562 17.816406 10.386719 17.816406 C 9.953125 17.816406 9.601562 18.167969 9.601562 18.601562 C 9.601562 19.039062 9.953125 19.390625 10.386719 19.390625 C 10.726562 19.390625 11.015625 19.175781 11.125 18.875 L 12.808594 18.875 C 13.269531 17.53125 14.542969 16.570312 16.039062 16.570312 C 17.324219 16.570312 18.445312 17.28125 19.027344 18.332031 L 17.949219 18.332031 C 17.839844 18.03125 17.550781 17.816406 17.210938 17.816406 C 16.777344 17.816406 16.425781 18.167969 16.425781 18.601562 C 16.425781 19.039062 16.777344 19.390625 17.210938 19.390625 C 17.550781 19.390625 17.839844 19.175781 17.949219 18.875 L 19.992188 18.875 C 19.597656 17.464844 18.472656 16.363281 17.050781 16.003906 L 17.050781 14.992188 L 17.386719 14.992188 C 17.605469 14.992188 17.78125 14.8125 17.78125 14.59375 C 17.78125 14.375 17.605469 14.195312 17.386719 14.195312 L 16.851562 14.195312 C 16.890625 14.285156 16.914062 14.382812 16.914062 14.484375 C 16.914062 14.875 16.597656 15.191406 16.207031 15.191406 C 15.816406 15.191406 15.5 14.875 15.5 14.484375 C 15.5 14.382812 15.519531 14.285156 15.558594 14.195312 L 14.691406 14.195312 C 14.472656 14.195312 14.296875 14.375 14.296875 14.59375 C 14.296875 14.8125 14.472656 14.992188 14.691406 14.992188 L 15.027344 14.992188 Z M 17.210938 18.289062 C 17.382812 18.289062 17.523438 18.429688 17.523438 18.601562 C 17.523438 18.777344 17.382812 18.917969 17.210938 18.917969 C 17.039062 18.917969 16.898438 18.777344 16.898438 18.601562 C 16.898438 18.429688 17.039062 18.289062 17.210938 18.289062 Z M 10.386719 18.289062 C 10.558594 18.289062 10.699219 18.429688 10.699219 18.601562 C 10.699219 18.777344 10.558594 18.917969 10.386719 18.917969 C 10.210938 18.917969 10.074219 18.777344 10.074219 18.601562 C 10.074219 18.429688 10.210938 18.289062 10.386719 18.289062 Z M 10.386719 18.289062 "/>
</g>
<path style=" stroke:none;fill-rule:evenodd;fill:rgb(0%,61.176473%,61.176473%);fill-opacity:1;" d="M 16.207031 14.039062 C 15.960938 14.039062 15.765625 14.238281 15.765625 14.484375 C 15.765625 14.726562 15.960938 14.925781 16.207031 14.925781 C 16.449219 14.925781 16.648438 14.726562 16.648438 14.484375 C 16.648438 14.238281 16.449219 14.039062 16.207031 14.039062 Z M 16.207031 14.039062 "/>
<path style=" stroke:none;fill-rule:evenodd;fill:rgb(0%,61.176473%,61.176473%);fill-opacity:1;" d="M 15.644531 13.15625 C 15.453125 13.15625 15.300781 13.308594 15.300781 13.5 C 15.300781 13.691406 15.453125 13.847656 15.644531 13.847656 C 15.835938 13.847656 15.992188 13.691406 15.992188 13.5 C 15.992188 13.308594 15.835938 13.15625 15.644531 13.15625 Z M 15.644531 13.15625 "/>
<g clip-path="url(#clip6)" clip-rule="nonzero">
<path style=" stroke:none;fill-rule:evenodd;fill:rgb(0%,61.176473%,61.176473%);fill-opacity:1;" d="M 16.53125 12.796875 C 16.382812 12.796875 16.265625 12.917969 16.265625 13.0625 C 16.265625 13.210938 16.382812 13.328125 16.53125 13.328125 C 16.675781 13.328125 16.792969 13.210938 16.792969 13.0625 C 16.792969 12.917969 16.675781 12.796875 16.53125 12.796875 Z M 16.53125 12.796875 "/>
</g>
</g>
</svg>
